<svg width="72" height="72" fill="none" xmlns="http://www.w3.org/2000/svg"><path d="M36 61c-7.475-8.649-20.423-10.766-25.963-10.743V14.514M36 61V20.527M36 61c-10.11-8.054-24.533-7.095-30.481-5.608v-35.81M36 61c-6.178-2.095-21.827-5.027-35 0V21.068c.766-.473 2.742-1.433 4.519-1.487M36 61c7.475-8.649 20.423-10.766 25.963-10.743V14.514M36 61c10.11-8.054 24.533-7.095 30.481-5.608v-35.81M36 61c6.178-2.095 21.827-5.027 35 0V21.068c-.766-.473-2.742-1.433-4.519-1.487M36 20.527C31.491 15.324 22.627 11 10.037 11v3.514M36 20.526C40.509 15.324 49.373 11 61.963 11v3.514m-51.926 0c-.97.022-3.232.216-4.518.81v4.257m56.444-5.067c.97.022 3.232.216 4.518.81v4.257" stroke="#1E1E1E"/></svg>