<svg width="72" height="72" fill="none" xmlns="http://www.w3.org/2000/svg"><path d="M6.008 37.162v25.489h31.027V65h17.61v-1.24h-16.37V52.416h-1.24v8.995H7.247V37.162h-1.24z" fill="#000"/><path d="M60.42 41.575V12.687h-7.129V7h-1.24v5.688H14.374V7h-1.24v5.688H6.007V43.73h1.24V24.167h6.794v-1.24H7.246v-1.07H59.34v-1.24H7.246v-6.69h5.889v2.813h1.24v-2.813h37.677v2.813h1.24v-2.813h5.888v6.69h-3.508v1.24h3.508v1.07H15.837v1.24H59.18v16.99a6.76 6.76 0 00-6.367 1.857v-15.59H13.721v29.785h21.362V55.97h-1.25v-8.197h1.25v-1.24h-1.25V38.21h8.16v7.239h1.24V38.21h8.17v6.914a6.734 6.734 0 00-.525 2.272h-1.083l-7.336-.001h-5.426v3.26h1.24v-2.02h4.186V58.2h7.336v-9.566h1.131a6.787 6.787 0 003.055 4.825v10.3h-2.607V65h3.847v-2.533h4.882V54.08c2.529-.986 4.326-3.445 4.326-6.318a6.789 6.789 0 00-4.01-6.186zM48.555 56.96h-4.857v-8.326h4.857v8.326zm-15.963-20.1h-8.196v-8.197h8.196v8.197zm1.24-8.197h8.16v8.197h-8.16v-8.197zm9.4 0h8.17v8.197h-8.17v-8.197zm-20.076 0v8.197H14.96v-8.197h8.196zM14.96 55.969v-8.196h8.196v8.196H14.96zm0-9.436V38.21h8.196v8.324H14.96zm17.632 9.436h-8.196v-8.196h8.196v8.196zm0-9.436h-8.196V38.21h8.196v8.324zm26.27 14.693H55.22V54.09a6.741 6.741 0 003.643.34v6.796zm-1.215-7.925a5.547 5.547 0 01-5.54-5.54 5.547 5.547 0 015.54-5.541 5.547 5.547 0 015.541 5.54 5.547 5.547 0 01-5.54 5.541z" fill="#000"/><path d="M58.306 52L55 49.02l1.072-.966 2.233 2.014L63.928 45l1.072.966L58.306 52z" fill="#000"/></svg>