<svg width="72" height="72" fill="none" xmlns="http://www.w3.org/2000/svg"><path d="M43.323 70l-2.759-2.7a2 2 0 01.102-2.951l15.372-13.103a2 2 0 012.766.165l3.345 3.618M41.396 63L29.111 48.98m26.781 2.243l-8.17-8.45m-8.21 4.684l3.199-.436a6 6 0 004.645-3.448l2.303-5.031a13.633 13.633 0 001.237-5.674v0a13.63 13.63 0 00-3.187-8.76l-.807-.962m-13.45-4.852l5.606-2.323a2 2 0 012.298.563l.67.799m-8.574.96l-4.586 3.847m4.586-3.846l-1.143-1.177a3 3 0 00-4.11-.182l-2.434 2.097m11.372 3.989c.687-.408 2.149-.678 3.009 1.083.207.423.157.915.036 1.37-.4 1.512-.467 4.001 1.542 5.639m-4.587-8.092c-2.98 1.805-5.134 1.984-6.587 1.527m6.587-1.527l.555.755a2 2 0 01-.62 2.921l-3.245 1.852m2.9 12.659c-.48-1.96-.675-5.852 1.252-8.893m2.434-2.484a8.241 8.241 0 00-2.434 2.484m-5.346 16.264l-5.075.354a2 2 0 01-1.215-.309l-3.21-2.048m0 0l14.846-14.261m-14.846 14.26l-.34.333c-.36.353-.568.829-.626 1.33-.344 3.008-1.945 7.835-6.323 7.952-5.979.16-8.682-4.086-7.617-8.733.781-3.41 4.7-4.653 7.028-4.919a2.252 2.252 0 001.069-.395l2.632-1.897m23.07-22.914l2.603-2.59c.44-.438.65-1.055.552-1.668-.356-2.218-.79-4.974 1.784-7.599C49.037 3.361 52.44 1.195 58.5 4l-4.547 2.889a2 2 0 00-.927 1.688v2.913a2 2 0 00.845 1.633l2.62 1.85a2 2 0 002.015.172L64 12.526c-.273 2.083-.919 6.451-5 8.413-2.822 1.356-4.977 1.307-6.565.607-.682-.301-1.467-.4-2.136-.072l-3.397 1.673m-4.876-5.814l4.876 5.814M16.744 28.87l-1.48 1.154a4 4 0 00-.862 5.387l1.632 2.427a2 2 0 00.546.545l4.243 2.843a2 2 0 002.57-.291L26 38.164m-9.255-9.295v0a2.118 2.118 0 01.437-2.68l3.659-3.168m-4.096 5.848l3.549 4.552a2 2 0 00.31.317L26 38.163m0 0l5.078-4.566M20.839 23.02l4.219 5.372c.081.104.172.2.272.285l5.747 4.918M20.839 23.021l4.4-4.001a.381.381 0 01.526.012v0m5.312 14.564l2.703-3.004a1.568 1.568 0 00.047-2.043v0m-4.961-6.41v0c-.34.286-.463.77-.193 1.123a3.76 3.76 0 001.877 1.286m-1.684-2.408l-3.101-3.108m4.785 5.516l3.277 4.001" stroke="#1E1E1E"/></svg>