<svg width="28" height="28" fill="none" xmlns="http://www.w3.org/2000/svg"><path d="M18 13.37l-.742.11.742-.11zM14.63 10l-.11.742.11-.742zM9 4.75h10v-1.5H9v1.5zm10 0A4.25 4.25 0 0123.25 9h1.5A5.75 5.75 0 0019 3.25v1.5zM23.25 9v10h1.5V9h-1.5zm0 10A4.25 4.25 0 0119 23.25v1.5A5.75 5.75 0 0024.75 19h-1.5zM19 23.25H9v1.5h10v-1.5zm-10 0A4.25 4.25 0 014.75 19h-1.5A5.75 5.75 0 009 24.75v-1.5zM4.75 19V9h-1.5v10h1.5zm0-10A4.25 4.25 0 019 4.75v-1.5A5.75 5.75 0 003.25 9h1.5zm12.508 4.48a3.25 3.25 0 01-.33 1.974l1.331.69a4.75 4.75 0 00.483-2.884l-1.484.22zm-.33 1.974a3.25 3.25 0 01-1.424 1.406l.675 1.34a4.75 4.75 0 002.08-2.056l-1.331-.69zm-1.424 1.406a3.25 3.25 0 01-1.977.306l-.238 1.48a4.75 4.75 0 002.89-.446l-.675-1.34zm-1.977.306a3.25 3.25 0 01-1.782-.911l-1.06 1.06a4.75 4.75 0 002.604 1.331l.238-1.48zm-1.782-.911a3.25 3.25 0 01-.91-1.782l-1.481.238a4.75 4.75 0 001.33 2.604l1.061-1.06zm-.91-1.782a3.25 3.25 0 01.305-1.977L9.8 11.82a4.75 4.75 0 00-.446 2.89l1.48-.238zm.305-1.977a3.25 3.25 0 011.406-1.424l-.69-1.331A4.75 4.75 0 009.8 11.82l1.34.675zm1.406-1.424a3.25 3.25 0 011.974-.33l.22-1.484a4.75 4.75 0 00-2.884.483l.69 1.331zm1.974-.33a3.25 3.25 0 011.821.917l1.061-1.061a4.75 4.75 0 00-2.662-1.34l-.22 1.484zm1.821.917a3.25 3.25 0 01.917 1.821l1.484-.22a4.75 4.75 0 00-1.34-2.662l-1.06 1.06zM20.25 8a.25.25 0 01-.25.25v1.5A1.75 1.75 0 0021.75 8h-1.5zm-.25.25a.25.25 0 01-.25-.25h-1.5c0 .966.784 1.75 1.75 1.75v-1.5zM19.75 8a.25.25 0 01.25-.25v-1.5A1.75 1.75 0 0018.25 8h1.5zm.25-.25a.25.25 0 01.25.25h1.5A1.75 1.75 0 0020 6.25v1.5z" fill="#fff"/></svg>