<svg width="70" height="14" fill="none" xmlns="http://www.w3.org/2000/svg"><path d="M6.937 4.198l.386-2.368h2.105l-.4 2.368h1.689v2.434H8.645l-.35 2H10.2v2.434H7.89l-.433 2.619h-2.09l.433-2.619H3.78l-.433 2.619H1.22l.451-2.619H0V8.633h2.057l.35-2.001H.517V4.198h2.29l.401-2.368h2.09l-.382 2.368h2.021zm-.736 4.435l.335-2.001h-2.02l-.336 2h2.021zm6.143-6.821h4.963c1.657 0 2.873.417 3.627 1.249.768.817 1.154 1.867 1.154 3.134 0 3.2-1.992 4.671-5.265 4.671H15.3v2.702h-2.957V1.812zM15.3 8.45h1.22c1.67 0 2.457-.85 2.457-2.034 0-1.202-.651-2.1-2.174-2.1H15.3V8.45zM29.884 4.5h2.892v9.069h-2.892v-.534a4.447 4.447 0 01-2.356.682c-1.387 0-2.472-.468-3.259-1.402-.786-.933-1.187-2.034-1.187-3.301 0-1.282.4-2.383 1.187-3.301.787-.934 1.872-1.402 3.26-1.402.786 0 1.572.2 2.355.617v-.429zm0 2.981c-.502-.417-1.103-.617-1.824-.617-.685 0-1.22.218-1.62.632-.401.417-.601.933-.601 1.518s.2 1.1.6 1.533c.401.417.936.635 1.62.635.718 0 1.323-.2 1.825-.617V7.48zm12.895 4.337a4.366 4.366 0 01-3.576 1.9c-1.387 0-2.556-.45-3.543-1.366-.969-.919-1.453-2.016-1.453-3.32 0-1.318.484-2.418 1.453-3.334.987-.919 2.156-1.369 3.543-1.369 1.471 0 2.757.72 3.612 1.867l-1.838 1.7c-.401-.683-.987-1.035-1.774-1.035-.6 0-1.122.218-1.537.632a2.106 2.106 0 00-.637 1.532c0 .585.219 1.1.637 1.518.42.418.936.636 1.537.636.787 0 1.37-.349 1.773-1.035l1.803 1.674zm7.313-3.752l3.259 5.502h-3.175L48.202 10.3l-1.169 1.184v2.084h-2.877V.998h2.877v6.636l2.924-3.135h3.328l-3.193 3.567zM62.47 9.835h-6.22c.335 1.016 1.103 1.583 2.108 1.583.736 0 1.57-.45 2.021-1.1l1.806 1.485c-.852 1.202-2.341 1.918-4.129 1.918-1.355 0-2.476-.45-3.361-1.351-.885-.901-1.322-2.016-1.322-3.335 0-1.318.433-2.433 1.322-3.334.885-.919 2.006-1.369 3.361-1.369 1.387 0 2.458.45 3.24 1.351.787.9 1.188 2.085 1.188 3.534l-.015.618zm-2.71-1.668c0-.817-.451-1.601-1.704-1.601-.885 0-1.588.668-1.806 1.601h3.51zM66.82 4.5v.998c.718-.766 1.639-1.151 2.793-1.166.117 0 .219 0 .27.018v3.116a5.57 5.57 0 00-.973-.098c-1.322 0-2.02.65-2.09 1.95v4.254h-2.877V4.499h2.877z" fill="#1E1E1E"/></svg>