<svg width="24" height="24" fill="none" xmlns="http://www.w3.org/2000/svg"><path d="M17.278 1.974l3.468.385c.93.103 1.646.84 1.549 1.77-.244 2.326-1.394 6.912-6.323 11.841-4.93 4.93-9.516 6.08-11.842 6.324-.93.098-1.668-.619-1.771-1.549l-.385-3.467a2 2 0 01.995-1.958l2.484-1.419a2 2 0 012.407.322l.637.638c.473.473 1.154.673 1.758.386.716-.339 1.752-.968 2.888-2.104 1.136-1.137 1.765-2.171 2.104-2.888.287-.604.087-1.285-.386-1.758l-.637-.637a2 2 0 01-.323-2.407l1.42-2.484a2 2 0 011.957-.995z" stroke="#fff" stroke-width="2" stroke-linecap="round" stroke-linejoin="round"/></svg>