<svg width="40" height="40" viewBox="0 0 40 40" fill="none" xmlns="http://www.w3.org/2000/svg">
<g opacity="0.64" clip-path="url(#clip0)">
<path d="M20 34C15.9422 29.1568 8.9132 27.9712 5.90591 27.9838V7.96757M20 34V11.3351M20 34C14.512 29.4897 6.68198 30.027 3.45295 30.8595V10.8054M20 34C16.6462 32.827 8.15099 31.1849 1 34V11.6378C1.41575 11.373 2.4884 10.8357 3.45295 10.8054M20 34C24.0578 29.1568 31.0868 27.9712 34.0941 27.9838V7.96757M20 34C25.488 29.4897 33.318 30.027 36.547 30.8595V10.8054M20 34C23.3538 32.827 31.849 31.1849 39 34V11.6378C38.5842 11.373 37.5116 10.8357 36.547 10.8054M20 11.3351C17.5524 8.42162 12.7402 5.99998 5.90591 6V7.96757M20 11.3351C22.4476 8.42162 27.2598 5.99998 34.0941 6V7.96757M5.90591 7.96757C5.37929 7.98018 4.15142 8.08865 3.45295 8.42162V10.8054M34.0941 7.96757C34.6207 7.98018 35.8486 8.08865 36.547 8.42162V10.8054" stroke="#1E1E1E"/>
</g>
<defs>
<clipPath id="clip0">
<rect width="40" height="40" fill="white"/>
</clipPath>
</defs>
</svg>
