<svg width="72" height="72" viewBox="0 0 72 72" fill="none" xmlns="http://www.w3.org/2000/svg">
<path d="M6.00781 37.1621V62.6508H37.0351V64.9999H54.6451V63.7604H38.2746V52.4162H37.0351V61.4113H7.24731V37.1621H6.00781Z" fill="black"/>
<path d="M60.4195 41.5747V24.1667H60.4205V12.6877H53.291V7H52.0515V12.6877H14.3743V7H13.1348V12.6877H6.00586V24.1667H6.00673V43.7311H7.24623V24.1667H14.04V22.9272H7.24623V21.8563H59.3403V20.6168H7.24623V13.9272H13.1348V16.7402H14.3743V13.9273H52.0516V16.7404H53.2911V13.9273H59.1801V20.6169H55.6717V21.8564H59.1801V22.9273H15.8372V24.1668H59.18V41.1568C58.6873 41.0425 58.1751 40.9802 57.6483 40.9802C55.7564 40.9802 54.0439 41.7599 52.8127 43.0138V38.0994L52.8132 27.4236H52.6689L52.6416 27.4231H41.9931H13.7214L13.7207 38.0994V57.2089L13.7214 57.2095H35.0825V55.97H33.8329V47.7731H35.0825V46.5336H33.8329V38.2091H41.9931V45.4478H43.2326V38.2091H51.4021V45.1227C51.1034 45.8274 50.921 46.5928 50.8781 47.3947H49.7955L42.4594 47.3939L37.033 47.3947V50.6542H38.2725V48.6342H42.4594V58.1999H49.7955V48.6342H50.9262C51.1876 50.6563 52.3424 52.401 53.9815 53.4593V63.7596H51.3741V64.9991H55.221V62.4656H60.1033V54.079C62.6315 53.0933 64.4287 50.6336 64.4287 47.7606C64.4287 45.0089 62.78 42.6363 60.4195 41.5747ZM48.556 56.9604H43.6989V48.6342H48.556V56.9604ZM32.5934 36.8599H24.3966V28.6631H32.5934V36.8599ZM33.8329 28.663H41.9931V36.8598H33.8329V28.663ZM43.2326 28.663H51.4021V36.8598H43.2326V28.663ZM23.1571 28.663V36.8598H14.9609V28.663H23.1571ZM14.9609 55.9693V47.773H23.1571V55.9693H14.9609ZM14.9609 46.5335V38.209H23.1571V46.5335H14.9609ZM32.5934 55.9693H24.3966V47.773H32.5934V55.9693ZM32.5934 46.5335H24.3966V38.209H32.5934V46.5335ZM58.8638 61.226H55.221V54.0899C55.9751 54.3802 56.7931 54.541 57.6482 54.541C58.0633 54.541 58.469 54.5015 58.8638 54.4297V61.226ZM57.6483 53.3014C54.5932 53.3014 52.1075 50.8156 52.1075 47.7604C52.1075 44.7053 54.5932 42.2197 57.6483 42.2197C60.7035 42.2197 63.1892 44.7053 63.1892 47.7604C63.1892 50.8156 60.7035 53.3014 57.6483 53.3014Z" fill="black"/>
<path d="M58.3055 52L55 49.0205L56.0719 48.0545L58.3055 50.0675L63.9282 45L65 45.9661L58.3055 52Z" fill="black"/>
</svg>
