<svg width="72" height="72" viewBox="0 0 72 72" fill="none" xmlns="http://www.w3.org/2000/svg">
<path d="M14.707 13V64.6774H58.9363V6.32258H20.991M14.707 13L20.991 6.32258M14.707 13H21L20.991 6.32258M14.707 36.5806L9 11.8383L17.8118 9.58888M30.5 6.32258L52.1569 2L53.2293 6.32258M58.9363 31.5376L65 57.1129L58.9363 59.0372M40.3885 64.6774L21.3652 69L20.414 64.6774" stroke="#1E1E1E"/>
<path d="M21 19H40.7209M21 26.0784H53M21 29.8039H53M21 33.5294H53M21 44.7059H53M21 48.8039H53M40.7209 57H53" stroke="#1E1E1E"/>
</svg>
