<svg width="72" height="72" viewBox="0 0 72 72" fill="none" xmlns="http://www.w3.org/2000/svg">
<path d="M4.5 46.5C10.6413 44.6554 22.4459 43 36 43C48.8516 43 60.1304 44.8113 66.5 46.5" stroke="#1E1E1E"/>
<path d="M32 16H39" stroke="#1E1E1E"/>
<path d="M48 54.5C48 37.3792 41.8513 17 35.5 17C29.1487 17 23 37.3792 23 54.5" stroke="#1E1E1E"/>
<path d="M5.375 46.2761C2.58741 47.1196 1 48.0904 1 49.1234C1 52.3689 16.67 55 36 55C55.33 55 71 52.3689 71 49.1234C71 47.9757 69.0406 46.9048 65.6528 46" stroke="#1E1E1E"/>
<path d="M66.5 51.5C66.5 34.3792 52.3447 17 35.5 17C18.6553 17 4.5 33.8792 4.5 51" stroke="#1E1E1E"/>
</svg>
