<svg width="72" height="72" viewBox="0 0 72 72" fill="none" xmlns="http://www.w3.org/2000/svg">
<path d="M43.3227 70.0001L40.5644 67.3003C39.7242 66.4779 39.7712 65.1116 40.666 64.3489L56.0379 51.2462C56.8548 50.55 58.0755 50.6226 58.804 51.4107L62.1489 55.0294" stroke="#1E1E1E"/>
<path d="M41.396 63L29.1112 48.9793M55.892 51.2226L47.7228 42.7732M39.5123 47.457L42.7106 47.0214C44.7477 46.7439 46.5009 45.4428 47.3565 43.5734L49.6595 38.5419C50.4744 36.7614 50.8962 34.8263 50.8962 32.8683V32.8683C50.8962 29.6643 49.7677 26.5626 47.7087 24.1078L46.9018 23.1457M33.4518 18.2939L39.058 15.9712C39.8646 15.637 40.7948 15.8646 41.3559 16.5336L42.026 17.3325M33.4518 18.2939L28.8655 22.1396M33.4518 18.2939L32.3092 17.1172C31.203 15.9782 29.401 15.8982 28.1983 16.9348L25.7648 19.0323M37.1373 23.0209C37.8238 22.6131 39.2856 22.3432 40.1458 24.1037C40.3528 24.5273 40.3031 25.0191 40.1822 25.4748C39.7811 26.9859 39.715 29.4754 41.7236 31.1129M37.1373 23.0209C34.1571 24.8257 32.003 25.0048 30.5502 24.5479M37.1373 23.0209L37.6921 23.776C38.3999 24.7395 38.11 26.1046 37.0718 26.6972L33.8273 28.5491M36.7278 41.2078C36.2476 39.2471 36.0516 35.3556 37.9789 32.3146M40.4132 29.831C39.3653 30.5245 38.5717 31.3793 37.9789 32.3146M32.6328 48.5787L27.5585 48.9333C27.1308 48.9632 26.7048 48.8548 26.3434 48.6242L23.1326 46.5757M23.1326 46.5757L37.9789 32.3146M23.1326 46.5757L22.7934 46.9076C22.4324 47.2608 22.2248 47.7368 22.1674 48.2385C21.8232 51.2461 20.2222 56.0726 15.8436 56.1899C9.86504 56.3502 7.16239 52.1039 8.22707 47.457C9.00825 44.0475 12.9262 42.8036 15.255 42.5384C15.6389 42.4947 16.0105 42.3694 16.324 42.1434L18.9558 40.2464M42.026 17.3325L44.6292 14.7422C45.0693 14.3042 45.2793 13.6873 45.181 13.0743C44.8252 10.8558 44.3917 8.1004 46.9651 5.47497C49.0373 3.36093 52.4395 1.19585 58.5 4L53.9531 6.88864C53.3755 7.25561 53.0256 7.89244 53.0256 8.57678V11.4896C53.0256 12.1391 53.341 12.7482 53.8715 13.123L56.491 14.9737C57.0821 15.3914 57.8527 15.4571 58.5059 15.1455L64 12.5254C63.727 14.6084 63.081 18.976 59 20.9378C56.178 22.2944 54.0227 22.2447 52.435 21.5445C51.7529 21.2438 50.9682 21.1443 50.2993 21.4735L46.9018 23.1457M42.026 17.3325L46.9018 23.1457M16.7445 28.8695L15.264 30.0228C13.6069 31.3137 13.2306 33.6664 14.4024 35.4098L16.0335 37.8366C16.1785 38.0523 16.3642 38.2377 16.5802 38.3824L20.8231 41.2254C21.6358 41.7699 22.7231 41.6467 23.3933 40.934L25.9991 38.1633M16.7445 28.8695V28.8695C16.2229 27.9881 16.4066 26.8598 17.1808 26.1893L20.8395 23.0209M16.7445 28.8695L20.293 33.4209C20.384 33.5376 20.4877 33.6439 20.6021 33.7377L25.9991 38.1633M25.9991 38.1633L31.0768 33.5965M20.8395 23.0209L25.0579 28.3935C25.1392 28.4969 25.2304 28.5922 25.3304 28.6777L31.0768 33.5965M20.8395 23.0209L25.2384 19.0196C25.3891 18.8825 25.6209 18.8881 25.7648 19.0323V19.0323M31.0768 33.5965L33.7799 30.5915C34.2978 30.0158 34.3179 29.1482 33.8273 28.5491V28.5491M28.8655 22.1396V22.1396C28.5253 22.4249 28.4029 22.9095 28.6728 23.2621C29.0669 23.777 29.6839 24.2755 30.5502 24.5479M28.8655 22.1396L25.7648 19.0323M30.5502 24.5479L33.8273 28.5491" stroke="#1E1E1E"/>
</svg>
