<svg width="72" height="72" viewBox="0 0 72 72" fill="none" xmlns="http://www.w3.org/2000/svg">
<path d="M36 61C28.5252 52.3514 15.577 50.2342 10.0372 50.2568V14.5135M36 61V20.527M36 61C25.8906 52.9459 11.4668 53.9054 5.5186 55.3919V19.5811M36 61C29.822 58.9054 14.1729 55.973 1 61V21.0676C1.76586 20.5946 3.74179 19.6351 5.5186 19.5811M36 61C43.4748 52.3514 56.423 50.2342 61.9628 50.2568V14.5135M36 61C46.1094 52.9459 60.5332 53.9054 66.4814 55.3919V19.5811M36 61C42.178 58.9054 57.8271 55.973 71 61V21.0676C70.2341 20.5946 68.2582 19.6351 66.4814 19.5811M36 20.527C31.4913 15.3243 22.6266 11 10.0372 11V14.5135M36 20.527C40.5087 15.3243 49.3734 11 61.9628 11V14.5135M10.0372 14.5135C9.0671 14.536 6.80525 14.7297 5.5186 15.3243V19.5811M61.9628 14.5135C62.9329 14.536 65.1947 14.7297 66.4814 15.3243V19.5811" stroke="#1E1E1E"/>
</svg>
