<svg width="28" height="28" viewBox="0 0 28 28" fill="none" xmlns="http://www.w3.org/2000/svg">
<path d="M18 13.37L17.2581 13.48L18 13.37ZM14.63 10L14.52 10.7419L14.63 10ZM9 4.75H19V3.25H9V4.75ZM19 4.75C21.3472 4.75 23.25 6.65279 23.25 9H24.75C24.75 5.82436 22.1756 3.25 19 3.25V4.75ZM23.25 9V19H24.75V9H23.25ZM23.25 19C23.25 21.3472 21.3472 23.25 19 23.25V24.75C22.1756 24.75 24.75 22.1756 24.75 19H23.25ZM19 23.25H9V24.75H19V23.25ZM9 23.25C6.65279 23.25 4.75 21.3472 4.75 19H3.25C3.25 22.1756 5.82436 24.75 9 24.75V23.25ZM4.75 19V9H3.25V19H4.75ZM4.75 9C4.75 6.65279 6.65279 4.75 9 4.75V3.25C5.82436 3.25 3.25 5.82436 3.25 9H4.75ZM17.2581 13.48C17.3584 14.1562 17.2429 14.8468 16.928 15.4536L18.2595 16.1444C18.7196 15.2576 18.8884 14.2483 18.7419 13.26L17.2581 13.48ZM16.928 15.4536C16.6132 16.0604 16.115 16.5524 15.5044 16.8597L16.1788 18.1996C17.0712 17.7504 17.7993 17.0313 18.2595 16.1444L16.928 15.4536ZM15.5044 16.8597C14.8938 17.1671 14.2019 17.2741 13.5269 17.1655L13.2886 18.6464C14.275 18.8051 15.2864 18.6488 16.1788 18.1996L15.5044 16.8597ZM13.5269 17.1655C12.852 17.0569 12.2285 16.7382 11.7452 16.2548L10.6845 17.3155C11.391 18.022 12.3022 18.4877 13.2886 18.6464L13.5269 17.1655ZM11.7452 16.2548C11.2618 15.7715 10.9431 15.148 10.8345 14.4731L9.35359 14.7114C9.51232 15.6978 9.97804 16.609 10.6845 17.3155L11.7452 16.2548ZM10.8345 14.4731C10.7259 13.7981 10.8329 13.1062 11.1403 12.4956L9.8004 11.8212C9.35122 12.7136 9.19487 13.725 9.35359 14.7114L10.8345 14.4731ZM11.1403 12.4956C11.4476 11.885 11.9396 11.3868 12.5464 11.072L11.8556 9.74052C10.9687 10.2007 10.2496 10.9288 9.8004 11.8212L11.1403 12.4956ZM12.5464 11.072C13.1532 10.7571 13.8438 10.6416 14.52 10.7419L14.74 9.25811C13.7517 9.11156 12.7424 9.28037 11.8556 9.74052L12.5464 11.072ZM14.52 10.7419C15.2097 10.8442 15.8483 11.1656 16.3414 11.6586L17.402 10.598C16.6814 9.87735 15.7481 9.4076 14.74 9.25811L14.52 10.7419ZM16.3414 11.6586C16.8344 12.1517 17.1558 12.7903 17.2581 13.48L18.7419 13.26C18.5924 12.2519 18.1227 11.3186 17.402 10.598L16.3414 11.6586ZM20.25 8C20.25 8.13807 20.1381 8.25 20 8.25V9.75C20.9665 9.75 21.75 8.9665 21.75 8H20.25ZM20 8.25C19.8619 8.25 19.75 8.13807 19.75 8H18.25C18.25 8.9665 19.0335 9.75 20 9.75V8.25ZM19.75 8C19.75 7.86193 19.8619 7.75 20 7.75V6.25C19.0335 6.25 18.25 7.0335 18.25 8H19.75ZM20 7.75C20.1381 7.75 20.25 7.86193 20.25 8H21.75C21.75 7.0335 20.9665 6.25 20 6.25V7.75Z" fill="white"/>
</svg>
