<svg width="70" height="14" viewBox="0 0 70 14" fill="none" xmlns="http://www.w3.org/2000/svg">
<path d="M6.93698 4.19814L7.32297 1.83008H9.42774L9.02718 4.19814H10.7168V6.63158H8.64482L8.29524 8.63281H10.1997V11.0663H7.89104L7.45771 13.6849H5.36751L5.80084 11.0663H3.77983L3.3465 13.6849H1.21989L1.67143 11.0663H0V8.63281H2.05742L2.407 6.63158H0.517087V4.19814H2.80756L3.20813 1.83008H5.29832L4.91597 4.19814H6.93698ZM6.2014 8.63281L6.53642 6.63158H4.51541L4.1804 8.63281H6.2014Z" fill="#1E1E1E"/>
<path d="M12.3438 1.81152H17.3071C18.9639 1.81152 20.1802 2.2292 20.934 3.06093C21.7023 3.87813 22.0883 4.92778 22.0883 6.19535C22.0883 9.39514 20.0964 10.8661 16.8227 10.8661H15.3006V13.5683H12.3438V1.81152ZM15.3006 8.45082H16.5205C18.1919 8.45082 18.9785 7.60093 18.9785 6.4169C18.9785 5.21471 18.3267 4.3176 16.8045 4.3176H15.3006V8.45082Z" fill="#1E1E1E"/>
<path d="M29.8843 4.49941H32.7756V13.5685H29.8843V13.0346C29.1487 13.485 28.3621 13.7174 27.5283 13.7174C26.1409 13.7174 25.0557 13.2489 24.2691 12.3155C23.4826 11.382 23.082 10.2815 23.082 9.01398C23.082 7.73188 23.4826 6.63139 24.2691 5.7125C25.0557 4.77907 26.1409 4.31055 27.5283 4.31055C28.3148 4.31055 29.1014 4.51031 29.8843 4.92799V4.49941ZM29.8843 7.48128C29.3818 7.0636 28.7809 6.86384 28.0599 6.86384C27.3753 6.86384 26.84 7.08176 26.4395 7.49581C26.0389 7.91348 25.8386 8.42923 25.8386 9.01398C25.8386 9.59873 26.0389 10.1145 26.4395 10.5467C26.84 10.9644 27.3753 11.1823 28.0599 11.1823C28.7773 11.1823 29.3818 10.9825 29.8843 10.5648V7.48128Z" fill="#1E1E1E"/>
<path d="M42.779 11.8183C41.9597 13.0023 40.6233 13.7178 39.2031 13.7178C37.8157 13.7178 36.6468 13.2674 35.66 12.3522C34.6913 11.4333 34.207 10.3364 34.207 9.03253C34.207 7.71412 34.6913 6.61363 35.66 5.69836C36.6468 4.77947 37.8157 4.3291 39.2031 4.3291C40.6743 4.3291 41.9597 5.04824 42.8154 6.19595L40.9765 7.89572C40.5759 7.21291 39.9897 6.8606 39.2031 6.8606C38.6023 6.8606 38.0815 7.07852 37.6664 7.49257C37.2513 7.90662 37.0292 8.42599 37.0292 9.02527C37.0292 9.61002 37.2476 10.1258 37.6664 10.5434C38.0852 10.9611 38.6023 11.179 39.2031 11.179C39.9897 11.179 40.5723 10.8304 40.9765 10.1439L42.779 11.8183Z" fill="#1E1E1E"/>
<path d="M50.0918 8.06592L53.3509 13.5684H50.1756L48.2019 10.2996L47.033 11.4836V13.5684H44.1562V0.998047H47.033V7.63371L49.9571 4.4993H53.2854L50.0918 8.06592Z" fill="#1E1E1E"/>
<path d="M62.4694 9.83451H56.2498C56.5848 10.8515 57.3532 11.4181 58.3582 11.4181C59.0938 11.4181 59.9277 10.9677 60.3792 10.3176L62.1854 11.8031C61.3333 13.0052 59.8439 13.7208 58.056 13.7208C56.7013 13.7208 55.5798 13.2704 54.6949 12.3696C53.81 11.4689 53.373 10.3539 53.373 9.03547C53.373 7.71706 53.8064 6.60203 54.6949 5.7013C55.5798 4.7824 56.7013 4.33203 58.056 4.33203C59.4434 4.33203 60.514 4.7824 61.2969 5.68314C62.0834 6.58387 62.484 7.7679 62.484 9.21707L62.4694 9.83451ZM59.7602 8.16742C59.7602 7.35022 59.3086 6.56571 58.056 6.56571C57.1711 6.56571 56.4683 7.234 56.2498 8.16742H59.7602Z" fill="#1E1E1E"/>
<path d="M66.8201 4.4991V5.4979C67.5375 4.73155 68.4588 4.34656 69.6131 4.33203C69.7296 4.33203 69.8316 4.33203 69.8826 4.35019V7.46645C69.5148 7.40107 69.198 7.36839 68.9103 7.36839C67.5885 7.36839 66.8893 8.01852 66.8201 9.31877V13.5718H63.9434V4.4991H66.8201Z" fill="#1E1E1E"/>
</svg>
