<svg width="164" height="48" viewBox="0 0 164 48" fill="none" xmlns="http://www.w3.org/2000/svg">
<g opacity="0.24">
<path d="M98.0312 0.00976562C100.299 0.00976562 102.515 0.00976562 104.795 0.00976562C104.795 3.71353 104.795 7.37231 104.795 11.0616C111.322 8.67385 116.745 9.99468 120.499 16.1537C123.207 20.5998 122.594 26.2543 119.376 30.326C116.729 33.6747 111.245 36.4722 104.862 33.6313C104.83 33.9479 104.799 34.2499 104.763 34.5954C102.523 34.5954 100.304 34.5954 98.0312 34.5954C98.0312 23.0679 98.0312 11.5726 98.0312 0.00976562ZM104.814 22.3256C104.805 25.4011 107.141 27.8338 110.11 27.8354C113.044 27.8386 115.391 25.4332 115.41 22.4075C115.429 19.3626 113.041 16.8687 110.111 16.8736C107.199 16.88 104.823 19.3224 104.814 22.3256Z" fill="#1E1E1E"/>
<path d="M142.569 11.2028C142.598 10.7529 142.622 10.3897 142.65 9.97677C144.885 9.97677 147.104 9.97677 149.383 9.97677C149.383 18.1524 149.383 26.3264 149.383 34.5695C147.167 34.5695 144.955 34.5695 142.678 34.5695C142.64 34.2642 142.6 33.9396 142.552 33.5427C139.516 34.9921 136.438 35.2347 133.304 34.1372C130.851 33.2776 128.878 31.7286 127.371 29.5513C124.451 25.3334 124.424 19.5118 127.332 15.2472C129.037 12.7454 131.333 11.0871 134.204 10.3206C137.063 9.55578 139.843 9.89322 142.569 11.2028ZM142.502 22.3607C142.492 19.3318 140.131 16.8798 137.219 16.8733C134.28 16.8669 131.884 19.3655 131.904 22.4153C131.924 25.433 134.322 27.8754 137.234 27.8432C140.187 27.8111 142.511 25.3912 142.502 22.3607Z" fill="#1E1E1E"/>
<path d="M21.2876 9.97573C27.8978 10.0079 33.2712 15.6414 33.2152 22.4802C33.1592 29.2819 27.7406 34.8095 21.1615 34.7789C14.4735 34.7484 9.14212 29.118 9.19968 22.1492C9.25413 15.431 14.7053 9.94359 21.2876 9.97573ZM21.2222 16.8289C18.3208 16.8032 15.8581 19.3292 15.8488 22.3388C15.8395 25.3612 18.2228 27.855 21.1709 27.9081C24.0583 27.9611 26.549 25.4416 26.5832 22.4336C26.6174 19.3838 24.1983 16.8546 21.2222 16.8289Z" fill="#1E1E1E"/>
<path d="M57.0013 34.7188C50.346 34.6947 45.0861 29.1752 45.1095 22.2433C45.1328 15.4689 50.5653 9.914 57.1787 10.012C64.0471 10.1133 69.2307 15.8898 69.0238 22.7896C68.8278 29.3439 63.6131 34.7767 57.0013 34.7188ZM57.1351 16.8009C54.1466 16.7865 51.7321 19.2465 51.7228 22.314C51.7134 25.4409 54.1061 27.9412 57.1102 27.9444C59.9852 27.946 62.4494 25.4136 62.4898 22.4184C62.5303 19.4056 60.0583 16.8138 57.1351 16.8009Z" fill="#1E1E1E"/>
<path d="M83.472 34.7188C76.8167 34.6947 71.5568 29.1752 71.5802 22.2433C71.6035 15.4689 77.036 9.914 83.6494 10.012C90.5178 10.1133 95.7014 15.8898 95.4945 22.7896C95.297 29.3439 90.0838 34.7767 83.472 34.7188ZM83.6058 16.8009C80.6173 16.7865 78.2028 19.2465 78.1935 22.314C78.1841 25.4409 80.5768 27.9412 83.5809 27.9444C86.4559 27.946 88.9201 25.4136 88.9606 22.4184C89.001 19.4056 86.529 16.8138 83.6058 16.8009Z" fill="#1E1E1E"/>
<path d="M42.3536 34.5231C40.1258 34.5231 37.9572 34.5231 35.7559 34.5231C35.7559 23.0342 35.7559 11.5886 35.7559 0.0820312C37.9759 0.0820312 40.1352 0.0820312 42.3536 0.0820312C42.3536 11.5388 42.3536 22.9827 42.3536 34.5231Z" fill="#1E1E1E"/>
<path d="M158.779 9.98123C158.807 10.3363 158.83 10.6465 158.858 11.0176C160.525 10.3315 162.185 9.86875 164 9.94588C164 12.2533 164 14.5157 164 16.7926C163.457 16.8955 162.916 16.9549 162.399 17.1028C160.116 17.7567 158.815 19.5355 158.815 21.9554C158.815 25.8616 158.815 29.7695 158.815 33.6757C158.815 33.9633 158.815 34.2494 158.815 34.5868C156.517 34.5868 154.302 34.5868 152.035 34.5868C152.035 26.3742 152.035 18.2034 152.035 9.97963C154.274 9.98123 156.489 9.98123 158.779 9.98123Z" fill="#1E1E1E"/>
<path d="M26.635 35.8164C28.8239 35.8164 30.9645 35.8164 33.2094 35.8164C33.0056 39.9637 31.4032 43.3252 28.1347 45.6438C24.0401 48.549 19.6716 48.7611 15.2939 46.3155C11.5788 44.2411 8.98389 39.615 9.27636 35.8244C11.4326 35.8244 13.5935 35.8244 15.8259 35.8244C16.0468 37.6177 16.7811 39.1281 18.2824 40.1517C19.2174 40.7896 20.2581 41.1109 21.3689 41.0644C24.1147 40.9487 25.7513 39.3113 26.635 35.8164Z" fill="#1E1E1E"/>
<path d="M6.67835 34.5468C4.46145 34.5468 2.25079 34.5468 0.0136719 34.5468C0.0136719 26.3584 0.0136719 18.2294 0.0136719 10.0312C2.2259 10.0312 4.41167 10.0312 6.67835 10.0312C6.67835 18.1715 6.67835 26.3359 6.67835 34.5468Z" fill="#1E1E1E"/>
<path d="M5.80371e-05 3.44347C0.010948 1.53936 1.52154 0.00483144 3.38529 1.09161e-05C5.20858 -0.00480961 6.74406 1.58757 6.74562 3.48204C6.74562 5.38132 5.22414 6.96245 3.3884 6.97209C1.51221 6.98173 -0.0108319 5.39578 5.80371e-05 3.44347Z" fill="#1E1E1E"/>
</g>
</svg>
