<svg width="164" height="48" fill="none" xmlns="http://www.w3.org/2000/svg"><path d="M98.031.01h6.764v11.052c6.527-2.388 11.95-1.067 15.704 5.092 2.708 4.446 2.095 10.1-1.123 14.172-2.647 3.349-8.131 6.146-14.514 3.305l-.099.964h-6.732V.01zm6.783 22.316c-.009 3.075 2.327 5.508 5.296 5.51 2.934.003 5.281-2.403 5.3-5.428.019-3.045-2.369-5.54-5.299-5.534-2.912.006-5.288 2.448-5.297 5.452zm37.755-11.123l.081-1.226h6.733v24.592h-6.705l-.126-1.026c-3.036 1.45-6.114 1.692-9.248.594-2.453-.86-4.426-2.408-5.933-4.586-2.92-4.218-2.947-10.04-.039-14.304 1.705-2.502 4.001-4.16 6.872-4.926 2.859-.765 5.639-.428 8.365.882zm-.067 11.158c-.01-3.03-2.371-5.481-5.283-5.488-2.939-.006-5.335 2.492-5.315 5.542.02 3.018 2.418 5.46 5.33 5.428 2.953-.032 5.277-2.452 5.268-5.482zM21.288 9.976c6.61.032 11.983 5.665 11.927 12.504-.056 6.802-5.474 12.33-12.054 12.299-6.688-.03-12.019-5.661-11.961-12.63.054-6.718 5.505-12.205 12.088-12.173zm-.066 6.853c-2.901-.026-5.364 2.5-5.373 5.51-.01 3.022 2.374 5.516 5.322 5.57 2.887.052 5.378-2.467 5.412-5.475.034-3.05-2.385-5.58-5.36-5.605zm35.779 17.89c-6.655-.024-11.915-5.544-11.892-12.476.024-6.774 5.456-12.329 12.07-12.231 6.868.101 12.052 5.878 11.845 12.778-.196 6.554-5.41 11.987-12.023 11.929zm.134-17.918c-2.988-.014-5.403 2.446-5.412 5.513-.01 3.127 2.383 5.627 5.387 5.63 2.875.002 5.34-2.53 5.38-5.526.04-3.012-2.432-5.604-5.355-5.617zm26.337 17.918c-6.655-.024-11.915-5.544-11.892-12.476.023-6.774 5.456-12.329 12.07-12.231 6.868.101 12.051 5.878 11.844 12.778-.197 6.554-5.41 11.987-12.022 11.929zm.134-17.918c-2.989-.014-5.403 2.446-5.412 5.513-.01 3.127 2.383 5.627 5.387 5.63 2.875.002 5.34-2.53 5.38-5.526.04-3.012-2.432-5.604-5.355-5.617zM42.354 34.523h-6.598V.082h6.598v34.441zM158.779 9.981l.079 1.037c1.667-.687 3.327-1.15 5.142-1.072v6.847c-.543.102-1.084.162-1.601.31-2.283.654-3.584 2.432-3.584 4.852v12.632h-6.78V9.98l6.744.001zM26.635 35.816h6.574c-.203 4.148-1.806 7.51-5.074 9.828-4.095 2.905-8.463 3.117-12.841.672-3.715-2.075-6.31-6.701-6.018-10.492h6.55c.22 1.794.955 3.304 2.456 4.328.935.638 1.976.959 3.087.912 2.746-.115 4.382-1.753 5.266-5.248zM6.678 34.547H.014V10.03h6.664v24.516zM0 3.443C.01 1.54 1.522.005 3.385 0c1.824-.005 3.36 1.588 3.36 3.482 0 1.9-1.52 3.48-3.357 3.49C1.512 6.982-.01 5.396 0 3.443z" opacity=".24" fill="#1E1E1E"/></svg>