<svg width="164" height="48" viewBox="0 0 164 48" fill="none" xmlns="http://www.w3.org/2000/svg">
<path d="M98.0312 0.00958252C100.299 0.00958252 102.515 0.00958252 104.795 0.00958252C104.795 3.71335 104.795 7.37213 104.795 11.0614C111.322 8.67367 116.745 9.9945 120.499 16.1535C123.207 20.5996 122.594 26.2541 119.376 30.3259C116.729 33.6745 111.245 36.472 104.862 33.6311C104.83 33.9477 104.799 34.2498 104.763 34.5952C102.523 34.5952 100.304 34.5952 98.0312 34.5952C98.0312 23.0678 98.0312 11.5724 98.0312 0.00958252ZM104.814 22.3254C104.805 25.4009 107.141 27.8337 110.11 27.8353C113.044 27.8385 115.391 25.433 115.41 22.4073C115.429 19.3624 113.041 16.8686 110.111 16.8734C107.199 16.8798 104.823 19.3222 104.814 22.3254Z" fill="white"/>
<path d="M142.569 11.2029C142.598 10.753 142.622 10.3899 142.65 9.9769C144.885 9.9769 147.104 9.9769 149.383 9.9769C149.383 18.1525 149.383 26.3265 149.383 34.5696C147.167 34.5696 144.955 34.5696 142.678 34.5696C142.64 34.2643 142.6 33.9397 142.552 33.5428C139.516 34.9922 136.438 35.2348 133.304 34.1374C130.851 33.2777 128.878 31.7287 127.371 29.5514C124.451 25.3335 124.424 19.5119 127.332 15.2473C129.037 12.7455 131.333 11.0872 134.204 10.3208C137.063 9.5559 139.843 9.89334 142.569 11.2029ZM142.502 22.3608C142.492 19.3319 140.131 16.8799 137.219 16.8735C134.28 16.867 131.884 19.3657 131.904 22.4155C131.924 25.4331 134.322 27.8755 137.234 27.8434C140.187 27.8112 142.511 25.3913 142.502 22.3608Z" fill="white"/>
<path d="M21.2876 9.97524C27.8978 10.0074 33.2712 15.641 33.2152 22.4797C33.1592 29.2814 27.7406 34.809 21.1615 34.7784C14.4735 34.7479 9.14212 29.1175 9.19968 22.1487C9.25413 15.4305 14.7053 9.9431 21.2876 9.97524ZM21.2222 16.8284C18.3208 16.8027 15.8581 19.3287 15.8488 22.3383C15.8395 25.3607 18.2228 27.8546 21.1709 27.9076C24.0583 27.9606 26.549 25.4411 26.5832 22.4331C26.6174 19.3833 24.1983 16.8541 21.2222 16.8284Z" fill="white"/>
<path d="M57.0013 34.719C50.346 34.6949 45.0861 29.1754 45.1095 22.2435C45.1328 15.4691 50.5653 9.91422 57.1787 10.0122C64.0471 10.1135 69.2307 15.8901 69.0238 22.7898C68.8278 29.3441 63.6131 34.7769 57.0013 34.719ZM57.1351 16.8011C54.1466 16.7867 51.7321 19.2468 51.7228 22.3142C51.7134 25.4411 54.1061 27.9414 57.1102 27.9446C59.9852 27.9462 62.4494 25.4138 62.4898 22.4187C62.5303 19.4058 60.0583 16.814 57.1351 16.8011Z" fill="white"/>
<path d="M83.472 34.719C76.8167 34.6949 71.5568 29.1754 71.5802 22.2435C71.6035 15.4691 77.036 9.91422 83.6494 10.0122C90.5178 10.1135 95.7014 15.8901 95.4945 22.7898C95.297 29.3441 90.0838 34.7769 83.472 34.719ZM83.6058 16.8011C80.6173 16.7867 78.2028 19.2468 78.1935 22.3142C78.1841 25.4411 80.5768 27.9414 83.5809 27.9446C86.4559 27.9462 88.9201 25.4138 88.9606 22.4187C89.001 19.4058 86.529 16.814 83.6058 16.8011Z" fill="white"/>
<path d="M42.3536 34.5235C40.1258 34.5235 37.9572 34.5235 35.7559 34.5235C35.7559 23.0346 35.7559 11.5891 35.7559 0.0824585C37.9759 0.0824585 40.1352 0.0824585 42.3536 0.0824585C42.3536 11.5392 42.3536 22.9832 42.3536 34.5235Z" fill="white"/>
<path d="M158.779 9.98172C158.807 10.3368 158.83 10.647 158.858 11.0181C160.525 10.332 162.185 9.86924 164 9.94637C164 12.2538 164 14.5162 164 16.7931C163.457 16.896 162.916 16.9554 162.399 17.1032C160.116 17.7572 158.815 19.536 158.815 21.9559C158.815 25.8621 158.815 29.77 158.815 33.6762C158.815 33.9638 158.815 34.2499 158.815 34.5873C156.517 34.5873 154.302 34.5873 152.035 34.5873C152.035 26.3747 152.035 18.2039 152.035 9.98011C154.274 9.98172 156.489 9.98172 158.779 9.98172Z" fill="white"/>
<path d="M26.635 35.8165C28.8239 35.8165 30.9645 35.8165 33.2094 35.8165C33.0056 39.9638 31.4032 43.3253 28.1347 45.6439C24.0401 48.5491 19.6716 48.7612 15.2939 46.3156C11.5788 44.2412 8.98389 39.6151 9.27636 35.8245C11.4326 35.8245 13.5935 35.8245 15.8259 35.8245C16.0468 37.6178 16.7811 39.1282 18.2824 40.1518C19.2174 40.7897 20.2581 41.111 21.3689 41.0644C24.1147 40.9488 25.7513 39.3114 26.635 35.8165Z" fill="white"/>
<path d="M6.67835 34.5471C4.46145 34.5471 2.25079 34.5471 0.0136719 34.5471C0.0136719 26.3586 0.0136719 18.2296 0.0136719 10.0315C2.2259 10.0315 4.41167 10.0315 6.67835 10.0315C6.67835 18.1718 6.67835 26.3361 6.67835 34.5471Z" fill="white"/>
<path d="M5.80371e-05 3.44347C0.010948 1.53937 1.52154 0.00483144 3.38529 1.09161e-05C5.20858 -0.00480961 6.74406 1.58757 6.74562 3.48204C6.74562 5.38132 5.22414 6.96246 3.3884 6.9721C1.51221 6.98174 -0.0108319 5.39578 5.80371e-05 3.44347Z" fill="white"/>
</svg>
