<svg width="164" height="48" fill="none" xmlns="http://www.w3.org/2000/svg"><path d="M98.031.01h6.764v11.05c6.527-2.387 11.95-1.066 15.704 5.093 2.708 4.446 2.095 10.1-1.123 14.172-2.647 3.349-8.131 6.146-14.514 3.305l-.099.964h-6.732V.01zm6.783 22.315c-.009 3.076 2.327 5.509 5.296 5.51 2.934.003 5.281-2.402 5.3-5.428.019-3.045-2.369-5.538-5.299-5.534-2.912.007-5.288 2.45-5.297 5.452zm37.755-11.122l.081-1.226h6.733V34.57h-6.705l-.126-1.027c-3.036 1.45-6.114 1.692-9.248.594-2.453-.86-4.426-2.408-5.933-4.586-2.92-4.217-2.947-10.04-.039-14.304 1.705-2.502 4.001-4.16 6.872-4.926 2.859-.765 5.639-.428 8.365.882zm-.067 11.158c-.01-3.03-2.371-5.481-5.283-5.488-2.939-.006-5.335 2.493-5.315 5.543.02 3.017 2.418 5.46 5.33 5.427 2.953-.032 5.277-2.452 5.268-5.482zM21.288 9.975c6.61.032 11.983 5.666 11.927 12.505-.056 6.801-5.474 12.329-12.054 12.298-6.688-.03-12.019-5.66-11.961-12.63.054-6.717 5.505-12.205 12.088-12.173zm-.066 6.853c-2.901-.025-5.364 2.5-5.373 5.51-.01 3.023 2.374 5.517 5.322 5.57 2.887.053 5.378-2.467 5.412-5.475.034-3.05-2.385-5.579-5.36-5.605zm35.779 17.891c-6.655-.024-11.915-5.544-11.892-12.476.024-6.774 5.456-12.329 12.07-12.23 6.868.1 12.052 5.877 11.845 12.777-.196 6.554-5.41 11.987-12.023 11.929zm.134-17.918c-2.988-.014-5.403 2.446-5.412 5.513-.01 3.127 2.383 5.627 5.387 5.63 2.875.002 5.34-2.53 5.38-5.525.04-3.013-2.432-5.605-5.355-5.618zm26.337 17.918c-6.655-.024-11.915-5.544-11.892-12.476.023-6.774 5.456-12.329 12.07-12.23 6.868.1 12.051 5.877 11.844 12.777-.197 6.554-5.41 11.987-12.022 11.929zm.134-17.918c-2.989-.014-5.403 2.446-5.412 5.513-.01 3.127 2.383 5.627 5.387 5.63 2.875.002 5.34-2.53 5.38-5.525.04-3.013-2.432-5.605-5.355-5.618zM42.354 34.523h-6.598V.084h6.598v34.44zM158.779 9.982l.079 1.036c1.667-.686 3.327-1.149 5.142-1.072v6.847c-.543.103-1.084.162-1.601.31-2.283.654-3.584 2.433-3.584 4.853v12.631h-6.78V9.98c2.239.002 4.454.002 6.744.002zM26.635 35.816h6.574c-.203 4.148-1.806 7.51-5.074 9.828-4.095 2.905-8.463 3.117-12.841.672-3.715-2.075-6.31-6.7-6.018-10.492h6.55c.22 1.794.955 3.304 2.456 4.328.935.638 1.976.959 3.087.912 2.746-.115 4.382-1.753 5.266-5.248zM6.678 34.547H.014V10.032h6.664v24.515zM0 3.443C.01 1.54 1.522.005 3.385 0c1.824-.005 3.36 1.588 3.36 3.482 0 1.9-1.52 3.48-3.357 3.49C1.512 6.982-.01 5.396 0 3.443z" fill="#fff"/></svg>